<?xml version="1.0" encoding="UTF-8"?>
<svg width="169px" height="44px" viewBox="0 0 169 44" version="1.1" xmlns="http://www.w3.org/2000/svg" xmlns:xlink="http://www.w3.org/1999/xlink">
    <title>logo/dark</title>
    <g id="EigenTX" stroke="none" stroke-width="1" fill="none" fill-rule="evenodd">
        <g id="EigenTX-dark2" transform="translate(-304.000000, -2772.000000)">
            <g id="footer/light" transform="translate(0.000000, 2731.000000)">
                <g id="logo/dark" transform="translate(304.000000, 41.000000)">
                    <g id="编组-31">
                        <path d="M21.4185195,7.68605961 C22.7971586,4.32746012 26.1704244,2.23016873 29.7930187,2.50882982 C31.8903101,2.67015993 33.9142696,3.4034786 35.6155689,4.65012033 C42.6994272,10.1793431 45.7207001,19.448491 43.2714158,28.1016513 C40.807465,36.7401452 33.3569474,43.0320194 24.4104596,44 C27.4610653,41.2867209 28.707707,37.7081258 28.6197088,33.5282094 C28.5463769,31.1375906 27.9743884,28.7909708 26.9477422,26.635014 C26.0237607,24.5817217 24.9531155,22.5870949 23.911803,20.6071345 C22.9144896,18.6711732 21.8878434,16.735212 21.2571894,14.6232542 C20.5532035,12.2913008 20.4505388,9.97401385 21.4185195,7.68605961 Z M22.4378134,0 C18.9472165,2.22928875 16.688595,5.98388032 16.3659348,10.1051312 C16.2339374,12.3050872 16.5419313,14.5050432 17.2752499,16.5730019 C17.9112372,18.5409625 18.8319461,20.3812893 19.7883567,22.2064429 L20.4285202,23.4221982 C21.3378354,25.1528303 22.2471505,26.868796 23.0098019,28.6580935 C23.9777826,30.8433831 24.4911056,33.1460037 24.1391127,35.5659553 C23.9191171,37.3845856 23.1124665,39.085885 21.8511584,40.4058586 C19.9738626,42.3564862 17.6272429,42.8698093 15.0606276,42.4738172 C13.8286522,42.2831543 12.6260096,41.9311614 11.4820325,41.4325047 C2.63820935,36.5926015 -1.80570178,26.3701393 0.687581692,16.6023346 C3.18086516,6.83452998 11.9806892,0 22.071154,0 Z" id="形状结合" fill="#EC210D"></path>
                        <path d="M16.6032107,8.50951659 C16.4858797,9.03750603 16.4125478,9.58016184 16.3685487,10.1228177 C16.2365513,12.3081073 16.5445452,14.5080633 17.2631975,16.5760219 C18.0405153,18.9959735 19.2578242,21.1959295 20.4311341,23.4252183 C21.3404493,25.1558503 22.2497644,26.8864824 23.0124158,28.6611136 C23.9803965,30.8464032 24.4937195,33.1490238 24.1270602,35.5689754 C24.0830611,35.9796339 23.9950628,36.3756259 23.8923982,36.7569516 C23.2910769,36.8449499 22.6750892,36.8742826 22.0591016,36.8742826 C15.0192424,36.8742826 8.96203016,31.8730493 7.62739019,24.9505211 C6.29275022,18.0279929 10.0620082,11.1347974 16.6032107,8.50951659 Z M22.0638399,7.45316281 L22.0785063,7.46782918 C28.9130363,7.48249555 34.8235847,12.2050678 36.3635539,18.8489349 C37.9181895,25.5074684 34.6915874,32.3419984 28.5610433,35.3779376 C28.825038,32.3713311 28.2677158,29.3500582 26.9477422,26.6367791 C26.0237607,24.5834869 24.9531155,22.5888601 23.911803,20.5942333 C22.9144896,18.6729384 21.8878434,16.7369771 21.2571894,14.6250194 C20.5532035,12.293066 20.4505388,9.97577902 21.4185195,7.67315841 C21.4478522,7.59982654 21.477185,7.52649467 21.5211841,7.45316281 L22.0638399,7.45316281 Z" id="形状结合" fill="#FCAC07"></path>
                        <path d="M16.7371659,14.6715803 C16.8838296,15.3022344 17.0598261,15.9475548 17.2651553,16.5782089 C17.9011426,18.5461695 18.8316694,20.3864963 19.7916502,22.2116499 L20.4330919,23.4274052 C21.3424071,25.1433709 22.2517222,26.8740029 23.0143736,28.6486341 C23.381033,29.469951 23.6743604,30.3059343 23.8943561,31.1712503 C23.2930347,31.3032477 22.6770471,31.3619132 22.0610594,31.3619132 C18.0718058,31.3472468 14.5372099,28.7659651 13.3199009,24.952708 C12.1025919,21.1541173 13.481231,16.9888673 16.7371659,14.6715803 Z M22.0638972,12.9549395 C25.9504861,12.9403391 29.4117502,15.374957 30.7317238,19.026884 C32.0516974,22.678811 30.9370531,26.7560627 27.9451129,29.2346798 C27.6811182,28.3400311 27.3437916,27.474715 26.9477995,26.6387318 C26.023818,24.5854395 24.9531727,22.5908127 23.9118602,20.5961859 C22.9145468,18.6602247 21.8879007,16.7242634 21.2572467,14.6123056 C21.0959165,14.0989825 20.9785856,13.5709931 20.8759209,13.0283373 C21.271913,12.9843382 21.6679051,12.9549395 22.0638972,12.9549395 Z" id="形状结合" fill="#EC210D"></path>
                    </g>
                    <path d="M64.6281158,42.5024064 C65.0779872,42.5024064 65.1936685,42.4252856 65.4121775,42.0396815 L65.8620489,41.2556198 C66.029144,40.9728434 66.0419975,40.9471365 66.0419975,40.6000928 L66.0419975,33.14508 C66.0419975,32.7337689 65.8620489,32.5024064 65.399324,32.5024064 C64.936599,32.5024064 64.7566505,32.7337689 64.7566505,33.14508 L64.7566505,40.6000928 L64.4096068,41.2170594 L63.8569075,41.2170594 L63.5098638,40.6000928 L63.5098638,36.5512496 C63.5098638,36.152792 63.3299152,35.7928949 62.8671903,35.7928949 C62.4044654,35.7928949 62.2245168,36.152792 62.2245168,36.5512496 L62.2245168,40.6000928 L61.8774731,41.2170594 L61.3247739,41.2170594 L60.9777302,40.6000928 L60.9777302,33.14508 C60.9777302,32.7337689 60.7977816,32.5024064 60.3350566,32.5024064 C59.8723317,32.5024064 59.6923831,32.7337689 59.6923831,33.14508 L59.6923831,40.6000928 C59.6923831,40.9471365 59.7052366,40.9728434 59.8723317,41.2556198 L60.3222032,42.0396815 C60.5407122,42.4252856 60.6563934,42.5024064 61.1062649,42.5024064 L62.0702751,42.5024064 C62.5072931,42.5024064 62.7643625,42.4124321 62.8543368,41.9497072 L62.8800438,41.9497072 C62.9700181,42.4124321 63.2270875,42.5024064 63.6641055,42.5024064 L64.6281158,42.5024064 Z M71.67766,33.7877535 L73.5671202,33.7877535 C73.9013104,33.7877535 74.2097937,33.6078049 74.2097937,33.14508 C74.2097937,32.682355 73.9013104,32.5024064 73.5671202,32.5024064 L68.5028528,32.5024064 C68.1686626,32.5024064 67.8601793,32.682355 67.8601793,33.14508 C67.8601793,33.6078049 68.1686626,33.7877535 68.5028528,33.7877535 L70.392313,33.7877535 L70.392313,41.2170594 L68.5028528,41.2170594 C68.1686626,41.2170594 67.8601793,41.397008 67.8601793,41.8597329 C67.8601793,42.3224578 68.1686626,42.5024064 68.5028528,42.5024064 L73.5671202,42.5024064 C73.9013104,42.5024064 74.2097937,42.3224578 74.2097937,41.8597329 C74.2097937,41.397008 73.9013104,41.2170594 73.5671202,41.2170594 L71.67766,41.2170594 L71.67766,33.7877535 Z M77.5061246,34.3147458 C77.4547108,34.2376249 77.3133226,34.0833833 77.3133226,33.9677021 C77.3133226,33.7491931 77.6089524,33.7877535 77.7503406,33.7877535 L80.4752763,33.7877535 C80.8737339,33.7877535 81.0922429,33.8520208 81.0922429,34.2890388 C81.0922429,34.648936 81.3236054,34.8931519 81.7092095,34.8931519 C82.1719344,34.8931519 82.3775899,34.5589617 82.3775899,34.1476506 C82.3775899,33.6977792 82.1076671,33.2222008 81.7734768,32.926571 C81.4007262,32.6052342 80.9894151,32.5024064 80.5009832,32.5024064 L77.7760475,32.5024064 C77.3647365,32.5024064 77.0691066,32.5024064 76.7092095,32.7337689 C76.2721915,33.0165452 76.0279755,33.4535632 76.0279755,33.9677021 C76.0279755,34.4175735 76.1822172,34.6746429 76.4521401,35.0216866 L80.8608804,40.6900671 C80.9122943,40.7671879 81.0922429,40.95999 81.0922429,41.0628177 C81.0922429,41.2556198 80.7709061,41.2170594 80.6680784,41.2170594 L77.8788753,41.2170594 C77.5189781,41.2170594 77.3133226,41.1656455 77.3133226,40.7800414 C77.3133226,40.4329977 77.0819601,40.1245144 76.7092095,40.1245144 C76.259338,40.1245144 76.0279755,40.4844116 76.0279755,40.8957226 C76.0279755,41.3455941 76.2850449,41.808319 76.6320886,42.0910954 C77.0176928,42.4124321 77.4418573,42.5024064 77.9302892,42.5024064 L80.7580527,42.5024064 C81.6449421,42.5024064 82.3775899,42.0139746 82.3775899,41.0499643 C82.3775899,40.6129463 82.1847879,40.3173165 81.9277185,39.9831262 L77.5061246,34.3147458 Z M85.4554119,41.2170594 L84.8384453,41.2170594 C84.504255,41.2170594 84.1957717,41.397008 84.1957717,41.8597329 C84.1957717,42.3224578 84.504255,42.5024064 84.8384453,42.5024064 L86.9721214,42.5024064 C87.9746921,42.5024064 88.5530982,42.2067766 89.0029697,41.2941802 L90.1726355,38.9548486 C90.403998,38.4921237 90.5453861,38.0551057 90.5453861,37.5409668 C90.5453861,36.9497072 90.4168514,36.5769566 90.159782,36.0499643 L89.0286766,33.7877535 C88.5916586,32.9137175 88.0903733,32.5024064 87.0878026,32.5024064 L84.941273,32.5024064 C84.5428155,32.5024064 84.1957717,32.682355 84.1957717,33.14508 C84.1957717,33.6335118 84.5556689,33.7877535 84.9798334,33.7877535 L85.4554119,33.7877535 L85.4554119,41.2170594 Z M86.7407589,33.7877281 L86.8950005,33.7877281 C87.4862602,33.7877281 87.6019414,33.7749 87.8718643,34.3275992 L88.9387023,36.4998357 C89.1186509,36.8725864 89.2600391,37.1168023 89.2600391,37.5538203 C89.2600391,37.8751571 89.1572113,38.0936661 89.0158232,38.3892959 L87.8847178,40.6772136 C87.6533553,41.152792 87.5248206,41.2170594 86.9849748,41.2170594 L86.7407589,41.2170594 L86.7407589,33.7877281 Z M97.0936451,33.556391 C96.7851618,32.9522779 96.2581695,32.5024064 95.5383752,32.5024064 C94.8185808,32.5024064 94.2915885,32.9522779 93.9831052,33.556391 L92.6977582,36.1142316 C92.4535423,36.615517 92.363568,36.9882676 92.363568,37.5409668 C92.363568,38.1579334 92.5306631,38.5435375 92.7877325,39.0705298 L93.9702518,41.4355684 C94.2787351,42.052535 94.7928739,42.5024064 95.5383752,42.5024064 C96.2838764,42.5024064 96.7980153,42.052535 97.1064986,41.4355684 L98.2890178,39.0705298 C98.5460872,38.5435375 98.7131824,38.1579334 98.7131824,37.5409668 C98.7131824,36.9882676 98.6232081,36.615517 98.3789921,36.1142316 L97.0936451,33.556391 Z M97.1322055,36.4998357 C97.3250076,36.8725864 97.4278353,37.1168023 97.4278353,37.5409668 C97.4278353,37.8751571 97.3507145,38.1065195 97.2093263,38.3892959 L95.9753932,40.8314553 C95.8854189,41.0114039 95.7954446,41.2170594 95.5383752,41.2170594 C95.2813058,41.2170594 95.1913315,41.0114039 95.1013572,40.8314553 L93.867424,38.3892959 C93.7260358,38.1065195 93.648915,37.8751571 93.648915,37.5409668 C93.648915,37.1168023 93.7517428,36.8725864 93.9445448,36.4998357 L95.1013572,34.1733576 C95.2041849,33.9677021 95.2684523,33.7877535 95.5383752,33.7877535 C95.808298,33.7877535 95.8725654,33.9677021 95.9753932,34.1733576 L97.1322055,36.4998357 Z M103.706171,34.7646172 L102.138048,32.5024064 L100.531364,32.5024064 L100.531364,41.8597329 C100.531364,42.271044 100.711313,42.5024064 101.174038,42.5024064 C101.636763,42.5024064 101.816711,42.271044 101.816711,41.8597329 L101.816711,34.2761854 L101.842418,34.2761854 L103.063498,36.0885247 L103.063498,36.2941802 C103.063498,36.6926378 103.243446,37.0653884 103.706171,37.0653884 C104.194603,37.0653884 104.348845,36.6926378 104.348845,36.2941802 L104.348845,36.0885247 L105.569925,34.2761854 L105.595632,34.2761854 L105.595632,41.8597329 C105.595632,42.271044 105.77558,42.5024064 106.238305,42.5024064 C106.70103,42.5024064 106.880979,42.271044 106.880979,41.8597329 L106.880979,32.5024064 L105.274295,32.5024064 L103.706171,34.7646172 Z" id="形状结合" fill="#B5B5C3" fill-rule="nonzero" opacity="0.5"></path>
                    <path d="M117.084063,33.556391 C116.744732,32.9522779 116.16504,32.5024064 115.373266,32.5024064 C114.581493,32.5024064 114.001801,32.9522779 113.66247,33.556391 L112.248588,36.1142316 C111.97995,36.615517 111.880979,36.9882676 111.880979,37.5409668 C111.880979,38.1579334 112.064783,38.5435375 112.34756,39.0705298 L113.648331,41.4355684 C113.987662,42.052535 114.553215,42.5024064 115.373266,42.5024064 C116.193318,42.5024064 116.758871,42.052535 117.098202,41.4355684 L118.398973,39.0705298 C118.68175,38.5435375 118.865554,38.1579334 118.865554,37.5409668 C118.865554,36.9882676 118.766583,36.615517 118.497945,36.1142316 L117.084063,33.556391 Z M117.12648,36.4998357 C117.338562,36.8725864 117.451673,37.1168023 117.451673,37.5409668 C117.451673,37.8751571 117.36684,38.1065195 117.211313,38.3892959 L115.853986,40.8314553 C115.755015,41.0114039 115.656043,41.2170594 115.373266,41.2170594 C115.09049,41.2170594 114.991518,41.0114039 114.892547,40.8314553 L113.53522,38.3892959 C113.379693,38.1065195 113.29486,37.8751571 113.29486,37.5409668 C113.29486,37.1168023 113.407971,36.8725864 113.620053,36.4998357 L114.892547,34.1733576 C115.005657,33.9677021 115.076351,33.7877535 115.373266,33.7877535 C115.670182,33.7877535 115.740876,33.9677021 115.853986,34.1733576 L117.12648,36.4998357 Z M120.865554,41.8597329 C120.865554,42.271044 121.063498,42.5024064 121.572495,42.5024064 C122.081493,42.5024064 122.279436,42.271044 122.279436,41.8597329 L122.279436,37.052535 L125.757585,37.052535 C126.125195,37.052535 126.464526,36.8725864 126.464526,36.4098614 C126.464526,35.9471365 126.125195,35.7671879 125.757585,35.7671879 L122.279436,35.7671879 L122.279436,33.7877535 L127.143189,33.7877535 C127.510799,33.7877535 127.85013,33.6078049 127.85013,33.14508 C127.85013,32.682355 127.510799,32.5024064 127.143189,32.5024064 L120.865554,32.5024064 L120.865554,41.8597329 Z" id="形状结合" fill="#B5B5C3" fill-rule="nonzero" opacity="0.5"></path>
                    <path d="M134.235734,41.2170594 L133.557071,41.2170594 C133.189462,41.2170594 132.85013,41.397008 132.85013,41.8597329 C132.85013,42.3224578 133.189462,42.5024064 133.557071,42.5024064 L135.904115,42.5024064 C137.006943,42.5024064 137.643189,42.2067766 138.138048,41.2941802 L139.42468,38.9548486 C139.679179,38.4921237 139.834706,38.0551057 139.834706,37.5409668 C139.834706,36.9497072 139.693318,36.5769566 139.410542,36.0499643 L138.166326,33.7877535 C137.685606,32.9137175 137.134192,32.5024064 136.031364,32.5024064 L133.670182,32.5024064 C133.231878,32.5024064 132.85013,32.682355 132.85013,33.14508 C132.85013,33.6335118 133.246017,33.7877535 133.712598,33.7877535 L134.235734,33.7877535 L134.235734,41.2170594 Z M135.649616,33.7877281 L135.819282,33.7877281 C136.469668,33.7877281 136.596917,33.7749 136.893832,34.3275992 L138.067354,36.4998357 C138.265297,36.8725864 138.420824,37.1168023 138.420824,37.5538203 C138.420824,37.8751571 138.307714,38.0936661 138.152187,38.3892959 L136.907971,40.6772136 C136.653472,41.152792 136.512084,41.2170594 135.918254,41.2170594 L135.649616,41.2170594 L135.649616,33.7877281 Z M143.248588,41.2170594 L143.248588,38.14508 L145.326994,38.14508 C145.694603,38.14508 146.033935,37.9651314 146.033935,37.5024064 C146.033935,37.0396815 145.694603,36.8597329 145.326994,36.8597329 L143.248588,36.8597329 L143.248588,33.7877535 L148.112341,33.7877535 C148.47995,33.7877535 148.819282,33.6078049 148.819282,33.14508 C148.819282,32.682355 148.47995,32.5024064 148.112341,32.5024064 L141.834706,32.5024064 L141.834706,42.5024064 L148.112341,42.5024064 C148.47995,42.5024064 148.819282,42.3224578 148.819282,41.8597329 C148.819282,41.397008 148.47995,41.2170594 148.112341,41.2170594 L143.248588,41.2170594 Z M150.819282,41.8597329 C150.819282,42.271044 151.017225,42.5024064 151.526223,42.5024064 C152.03522,42.5024064 152.233164,42.271044 152.233164,41.8597329 L152.233164,37.052535 L155.711313,37.052535 C156.078922,37.052535 156.418254,36.8725864 156.418254,36.4098614 C156.418254,35.9471365 156.078922,35.7671879 155.711313,35.7671879 L152.233164,35.7671879 L152.233164,33.7877535 L157.096917,33.7877535 C157.464526,33.7877535 157.803858,33.6078049 157.803858,33.14508 C157.803858,32.682355 157.464526,32.5024064 157.096917,32.5024064 L150.819282,32.5024064 L150.819282,41.8597329 Z M164.003087,33.7877535 L166.081493,33.7877535 C166.449102,33.7877535 166.788434,33.6078049 166.788434,33.14508 C166.788434,32.682355 166.449102,32.5024064 166.081493,32.5024064 L160.510799,32.5024064 C160.143189,32.5024064 159.803858,32.682355 159.803858,33.14508 C159.803858,33.6078049 160.143189,33.7877535 160.510799,33.7877535 L162.589205,33.7877535 L162.589205,41.2170594 L160.510799,41.2170594 C160.143189,41.2170594 159.803858,41.397008 159.803858,41.8597329 C159.803858,42.3224578 160.143189,42.5024064 160.510799,42.5024064 L166.081493,42.5024064 C166.449102,42.5024064 166.788434,42.3224578 166.788434,41.8597329 C166.788434,41.397008 166.449102,41.2170594 166.081493,41.2170594 L164.003087,41.2170594 L164.003087,33.7877535 Z" id="形状结合" fill="#B5B5C3" fill-rule="nonzero" opacity="0.5"></path>
                    <path d="M60.1103831,1.00756705 L60.1103831,19.1051257 L70.4826234,19.1051257 C70.790405,19.1153851 71.0879272,18.9922725 71.3136337,18.7768254 C71.5290808,18.5613782 71.6624529,18.2741154 71.6624529,17.9663338 C71.6624529,17.6585522 71.5290808,17.3610299 71.3136337,17.1455828 C71.0981866,16.9403951 70.8109238,16.8172824 70.5134015,16.8172824 L62.3982264,16.8172824 L62.3982264,11.2156571 L65.886418,11.2156571 C66.1941996,11.2156571 66.4814624,11.0925445 66.6969096,10.8770974 C66.9123567,10.6513908 67.0354693,10.3538686 67.02521,10.046087 C67.0149506,9.41000501 66.5122406,8.90729505 65.886418,8.89703566 L62.3982264,8.89703566 L62.3982264,3.32618851 L70.4826234,3.32618851 C70.790405,3.32618851 71.0981866,3.20307587 71.3136337,2.98762874 C71.5290808,2.77218161 71.6521935,2.47465939 71.6521935,2.16687778 C71.6316747,1.53079579 71.1187054,1.01782644 70.4826234,1.00756705 L60.1103831,1.00756705 Z M83.5664609,17.1208483 C83.3407544,16.9054012 83.0534915,16.7822885 82.7354505,16.7925479 L80.4578666,16.7925479 L80.4578666,7.10768658 C80.4578666,6.79990497 80.334754,6.51264213 80.1295662,6.297195 C79.9141191,6.07148849 79.6268563,5.94837584 79.3190747,5.94837584 L75.8308831,5.94837584 C75.5231015,5.94837584 75.2255792,6.07148849 75.0203915,6.297195 C74.8049444,6.51264213 74.6818317,6.81016435 74.6818317,7.11794596 C74.6818317,7.42572757 74.8049444,7.71299041 75.0203915,7.92843754 C75.2358386,8.14388466 75.5231015,8.25673792 75.8206237,8.25673792 L78.1495045,8.25673792 L78.1495045,16.7925479 L75.8103643,16.7925479 C75.5025827,16.7822885 75.2050605,16.9054012 74.9998727,17.1311077 C74.6715723,17.4594081 74.5689785,17.9518586 74.7536474,18.3724935 C74.928057,18.8033878 75.3486919,19.0803912 75.8103643,19.0803912 L82.7764881,19.0803912 C83.0740103,19.0803912 83.3612731,18.9572786 83.5664609,18.7520908 C83.781908,18.5366437 83.91528,18.2391215 83.91528,17.9415993 C83.91528,17.6338176 83.781908,17.3362954 83.5664609,17.1208483 Z M76.970486,1.14058213 L76.9397078,2.15626144 C76.9294484,2.45378366 77.0525611,2.73078711 77.2577488,2.94623424 C77.473196,3.17194076 77.7707182,3.30531279 78.0784998,3.2950534 L79.3096262,3.2950534 C79.6174078,3.30531279 79.9149301,3.17194076 80.1201178,2.94623424 C80.3355649,2.73078711 80.4586776,2.43326489 80.4484182,2.12548328 L80.4484182,1.14058213 C80.4586776,0.525018906 79.9559676,0.0120495558 79.330145,0.00179016884 L78.1297967,0.00179016884 C77.8220151,-0.00846921817 77.5244929,0.114643426 77.3090458,0.330090553 C77.0833392,0.54553768 76.9602266,0.843059904 76.970486,1.14058213 Z M92.8965027,5.93382116 C93.7993287,5.93382116 94.6713766,6.28264031 95.3484962,6.88794415 L96.138469,7.5548043 L96.1076908,7.10339128 C96.1179502,6.47756867 96.6309195,5.9748587 97.2567421,5.96459932 C97.5645237,5.95433993 97.862046,6.07745257 98.0877525,6.2928997 C98.313459,6.49808744 98.4365716,6.79560967 98.4365716,7.10339128 L98.4365716,19.927625 C98.446831,20.8920074 98.0159368,21.8050929 97.2772609,22.4206561 L96.3436567,23.2208883 C96.0461345,23.4671136 95.7075747,23.6517825 95.3484962,23.7646358 C94.9586394,23.9185266 94.548264,24.0006017 94.1378885,24.0006017 L89.1723452,24.0006017 C88.874823,24.0108611 88.5773007,23.8877484 88.3618536,23.6723013 C88.1464065,23.4671136 88.0232938,23.1695913 88.0335532,22.8618097 C88.0232938,22.5540281 88.1464065,22.2667653 88.3618536,22.0513181 C88.5773007,21.8461304 88.874823,21.7230178 89.1723452,21.7332772 L94.1378885,21.7332772 C94.4456701,21.7230178 94.7431923,21.6101645 94.9688988,21.3947174 L95.7486122,20.7278572 C96.0050969,20.5534476 96.1487283,20.2559254 96.1487283,19.9378844 L96.1487283,16.4599522 C95.0714927,17.5371879 94.0250352,18.0809354 93.0196153,18.0809354 L91.2550007,18.0809354 C90.3521747,18.0809354 89.4801268,17.752635 88.8030072,17.1575905 L87.9514781,16.3881365 C87.6334371,16.1008737 87.3872118,15.7520545 87.2230616,15.3519384 C87.0281333,14.941563 86.9255394,14.4798905 86.91528,14.0182181 L86.91528,10.2119855 C86.91528,9.6887568 87.0178739,9.16552806 87.2230616,8.68333687 C87.3769524,8.27296139 87.6231777,7.90362346 87.9514781,7.60610124 L88.874823,6.80586905 C89.5314237,6.23134338 90.3829528,5.92356177 91.2447414,5.93382116 Z M92.8221062,8.22261638 L91.2831981,8.22261638 C90.9241196,8.23287577 90.5855598,8.37650719 90.3188157,8.62273248 L89.610918,9.20751754 C89.36854,9.40501074 89.2204201,9.68890721 89.2009233,9.99735007 L89.2005425,13.9370949 C89.2210613,14.2859141 89.3852115,14.6039551 89.6519556,14.8091428 L90.4008908,15.476003 C90.6060786,15.6709314 90.8728226,15.7735252 91.1498261,15.7837846 L93.0067751,15.7837846 C93.3453349,15.7530064 93.6633759,15.609375 93.9096012,15.3734091 L95.7152533,13.8345011 C95.9819974,13.6087946 96.1358882,13.2804942 96.1358882,12.931675 L96.1358882,11.208098 C96.1461475,10.8079819 95.971738,10.4283846 95.6639564,10.1821593 L93.8070073,8.59195432 C93.5402632,8.34572903 93.1811847,8.212357 92.8221062,8.22261638 Z M108.915844,5.96461024 C109.716076,5.96461024 110.48553,6.30317002 111.203687,6.97003017 L112.055216,7.79078113 C112.67078,8.34478803 112.978561,9.16553899 112.978561,10.2632934 L112.978561,13.0333279 C112.968302,13.6591505 112.465592,14.1721199 111.839769,14.1823792 L103.755372,14.1823792 L103.755372,14.8492394 C103.755372,15.2390961 103.940041,15.608434 104.258082,15.8443999 L104.924942,16.3984068 C105.212205,16.6548915 105.581543,16.7985229 105.96114,16.8190417 L111.839769,16.8190417 C112.147551,16.8087823 112.434814,16.931895 112.650261,17.1473421 C112.865708,17.3627892 112.988821,17.650052 112.988821,17.9578337 C112.988821,18.2656153 112.865708,18.5528781 112.650261,18.7683252 C112.434814,18.9837724 112.147551,19.106885 111.850029,19.106885 L105.80725,19.106885 C105.376355,19.0966256 104.945461,19.0145505 104.545345,18.8504003 C104.196526,18.7375471 103.868226,18.5528781 103.570703,18.3271716 L102.555024,17.4346049 C102.206205,17.1370827 101.939461,16.7780042 101.754792,16.3676287 C101.559863,15.977772 101.45727,15.5571371 101.436751,15.1262428 L101.436751,9.8734367 C101.467529,9.45280183 101.580382,9.04242635 101.775311,8.66282903 C101.970239,8.20115661 102.278021,7.80104052 102.657618,7.47274013 L103.611741,6.72380488 C104.196526,6.23135431 104.935202,5.96461024 105.704656,5.96461024 Z M108.7341,8.27902019 L105.861471,8.27902019 C105.502393,8.27902019 105.163833,8.41239222 104.897089,8.64835813 L104.230229,9.20236502 C103.942966,9.40755276 103.768556,9.73585315 103.778816,10.0949317 L103.778816,11.8595463 L110.724421,11.8595463 L110.724421,10.2693413 C110.74494,9.90000334 110.601308,9.5409248 110.324305,9.28444012 L109.657445,8.69965506 C109.411219,8.46368916 109.082919,8.30979835 108.7341,8.27902019 Z M127.202331,9.28864071 C127.181812,8.38581465 126.802214,7.52402614 126.155873,6.89820354 C125.53005,6.27238093 124.678521,5.92356177 123.796214,5.93382116 L122.729238,5.93382116 C121.898227,5.92356177 121.077477,6.15952767 120.369579,6.6109407 L118.276664,7.88310469 L118.276664,7.11365066 C118.276664,6.80586905 118.153551,6.50834683 117.938104,6.2928997 C117.722657,6.06719319 117.435394,5.94408054 117.127613,5.94408054 C116.819831,5.94408054 116.532568,6.06719319 116.32738,6.2928997 C116.111933,6.50834683 115.988821,6.80586905 115.988821,7.10339128 L115.988821,17.9578227 C116.019599,18.573386 116.522309,19.0555771 117.137872,19.0555771 C117.743176,19.0555771 118.245886,18.573386 118.276664,17.9578227 L118.276664,10.6428798 L121.405777,8.62178055 C121.723818,8.37555526 122.113675,8.24218323 122.52405,8.22166446 L123.632064,8.22166446 C124.442555,8.22166446 124.86319,8.62178055 124.883709,9.42201274 L125.232528,17.9578227 C125.222269,18.2758637 125.345382,18.5836453 125.581347,18.7990925 C125.796795,18.9940208 126.073798,19.0966147 126.37132,19.0966147 C126.679102,19.1068741 126.976624,18.9837614 127.192071,18.7580549 C127.407518,18.5528672 127.530631,18.255345 127.510112,17.9578227 L127.202331,9.28864071 Z M138.628098,1.00756705 C139.541184,0.997307662 140.413232,1.36664559 141.049314,2.03350575 C141.705915,2.66958774 142.075252,3.55189503 142.054734,4.46498047 L142.054734,8.75340424 C142.054734,10.6513908 140.526085,12.1800395 138.628098,12.1902989 L132.821285,12.1902989 L132.821285,17.9560744 C132.821285,18.263856 132.708432,18.5511188 132.492985,18.766566 C132.277538,18.9820131 131.980016,19.1051257 131.672234,19.1051257 C131.364452,19.1051257 131.06693,18.9922725 130.851483,18.766566 C130.625777,18.5613782 130.502664,18.263856 130.512923,17.9560744 L130.512923,1.00756705 Z M138.643705,3.32210195 L132.836892,3.32210195 L132.836892,9.89836902 L138.643705,9.89836902 C139.269528,9.88810963 139.782497,9.38539967 139.792757,8.75957706 L139.792757,4.47115329 C139.792757,4.16337168 139.669644,3.86584946 139.443938,3.66066172 C139.23875,3.44521459 138.951487,3.32210195 138.643705,3.32210195 Z M152.833507,8.21992704 C153.141288,8.21992704 153.438811,8.34303969 153.654258,8.55848682 C153.869705,8.77393394 153.992818,9.06119678 154.003077,9.36897839 L154.29034,17.9663447 C154.300599,18.2638669 154.423712,18.5511298 154.6289,18.7665769 C154.834087,18.9922834 155.131609,19.115396 155.429132,19.1051367 C155.736913,19.115396 156.034436,18.9922834 156.249883,18.7768363 C156.475589,18.5613892 156.588442,18.2741263 156.578183,17.9663447 L156.29092,9.39975655 C156.280661,8.48667111 155.901063,7.60436382 155.244463,6.96828183 C154.608381,6.32194045 153.736333,5.9628619 152.833507,5.97312129 L151.417711,5.97312129 C150.761111,5.97312129 150.022435,6.22960596 149.181165,6.76309409 L147.354994,7.95318298 L147.354994,2.1771481 C147.354994,1.55132549 146.842025,1.03835614 146.205943,1.03835614 C145.908421,1.02809675 145.610898,1.15120939 145.395451,1.36665652 C145.180004,1.57184426 145.056891,1.8591071 145.067151,2.15662932 L145.067151,17.9560853 L145.056891,17.9560853 C145.036373,18.3767202 145.25182,18.7768363 145.610898,18.9922834 C145.980236,19.2077305 146.431649,19.2077305 146.790728,18.9922834 C147.149806,18.7768363 147.365254,18.3767202 147.344735,17.9560853 L147.344735,10.6821799 L150.59696,8.55848682 C150.873964,8.36355846 151.212524,8.24044582 151.551083,8.21992704 L152.833507,8.21992704 Z M160.748395,8.25244626 L163.077276,8.25244626 L163.077276,16.7882563 L160.727876,16.7882563 C160.430354,16.7779969 160.132832,16.9011095 159.927644,17.126816 C159.701938,17.3320038 159.578825,17.629526 159.578825,17.9270482 C159.578825,18.5631302 160.091794,19.0760996 160.717617,19.0760996 L167.694,19.0760996 C167.991522,19.0760996 168.278785,18.9529869 168.494232,18.7477992 C168.709679,18.532352 168.832792,18.2348298 168.832792,17.9373076 C168.832792,17.629526 168.709679,17.3320038 168.494232,17.1165566 C168.268526,16.9011095 167.971004,16.7779969 167.663222,16.7882563 L165.375379,16.7882563 L165.375379,7.1136543 C165.385638,6.80587269 165.262525,6.50835047 165.047078,6.29290334 C164.841891,6.06719683 164.544368,5.94408419 164.236587,5.94408419 L160.748395,5.94408419 C160.440614,5.94408419 160.143091,6.06719683 159.937904,6.29290334 C159.722456,6.50835047 159.599344,6.80587269 159.609603,7.1136543 C159.599344,7.42143592 159.722456,7.70869875 159.937904,7.92414588 C160.153351,8.13959301 160.440614,8.25244626 160.748395,8.25244626 Z M162.236822,0.34034994 C162.021375,0.54553768 161.908522,0.843059904 161.908522,1.14058213 L161.877744,2.15626144 C161.867484,2.45378366 161.990597,2.73078711 162.195785,2.94623424 C162.411232,3.17194076 162.708754,3.30531279 163.026795,3.2950534 L164.247662,3.2950534 C164.555444,3.30531279 164.852966,3.17194076 165.058154,2.94623424 C165.273601,2.73078711 165.396713,2.43326489 165.386454,2.12548328 L165.386454,1.14058213 C165.396713,0.843059904 165.273601,0.54553768 165.058154,0.330090553 C164.842706,0.114643426 164.555444,0.00179016884 164.247662,0.00179016884 L163.047314,0.00179016884 C162.749791,0.00179016884 162.452269,0.124902813 162.236822,0.34034994 Z" id="形状结合" fill="#B5B5C3"></path>
                </g>
            </g>
        </g>
    </g>
</svg>